<?xml version="1.0" standalone="no"?>
<!DOCTYPE svg PUBLIC "-//W3C//DTD SVG 20010904//EN"
 "http://www.w3.org/TR/2001/REC-SVG-20010904/DTD/svg10.dtd">
<svg version="1.0" xmlns="http://www.w3.org/2000/svg"
 width="512.000000pt" height="512.000000pt" viewBox="0 0 512.000000 512.000000"
 preserveAspectRatio="xMidYMid meet">
<metadata>
Created by potrace 1.14, written by Peter Selinger 2001-2017
</metadata>
<g transform="translate(0.000000,512.000000) scale(0.100000,-0.100000)"
fill="#000000" stroke="none">
<path d="M2150 4438 c-72 -31 -141 -78 -204 -140 -70 -68 -92 -123 -95 -233
-2 -90 14 -126 107 -240 5 -6 17 -24 28 -40 10 -17 21 -32 24 -35 10 -10 31
-45 51 -87 11 -23 24 -45 29 -48 6 -3 10 -15 10 -26 0 -10 3 -19 8 -19 4 0 17
-22 29 -48 12 -26 34 -66 49 -87 43 -64 47 -90 17 -119 -14 -15 -36 -26 -48
-26 -31 0 -85 19 -117 42 -16 11 -28 17 -28 13 0 -3 -8 -1 -19 4 -10 6 -33 13
-52 16 -19 3 -47 10 -64 15 -16 5 -52 12 -80 15 -27 4 -66 9 -85 12 -19 2 -83
7 -141 10 -90 5 -115 2 -165 -15 -33 -11 -77 -23 -98 -26 -60 -10 -90 -18
-103 -29 -7 -5 -13 -7 -13 -3 0 3 -17 -11 -39 -32 -35 -33 -65 -76 -66 -94 0
-3 -3 -10 -7 -14 -23 -22 -4 -160 38 -284 3 -8 6 -17 6 -20 0 -3 5 -16 10 -30
20 -53 18 -98 -7 -175 -48 -148 -31 -271 44 -318 79 -49 192 -132 235 -173 52
-49 241 -119 281 -104 11 4 24 5 29 2 9 -5 29 -7 164 -16 40 -3 77 -8 82 -11
6 -3 10 -2 10 3 0 6 14 7 35 2 19 -4 35 -5 35 -1 0 4 15 5 34 3 19 -2 52 2 73
9 58 19 75 18 119 -7 48 -28 85 -87 77 -126 -3 -16 -9 -28 -14 -28 -5 0 -9 -8
-9 -19 0 -10 -7 -24 -15 -31 -9 -7 -13 -15 -11 -17 3 -3 -6 -17 -20 -31 -13
-15 -24 -31 -24 -36 0 -4 -16 -35 -36 -67 -19 -32 -34 -60 -32 -62 2 -1 -5
-15 -15 -30 -9 -14 -19 -34 -20 -44 -2 -10 -9 -31 -15 -46 -7 -16 -12 -30 -12
-33 0 -3 -7 -21 -17 -42 -9 -20 -17 -39 -18 -42 -1 -3 -7 -18 -14 -35 -7 -16
-14 -38 -16 -48 -2 -10 -13 -42 -23 -70 -10 -29 -18 -70 -16 -92 2 -53 13
-144 20 -175 3 -14 7 -36 10 -49 3 -13 9 -31 13 -40 9 -16 11 -23 11 -41 0
-11 74 -60 91 -60 6 0 43 -16 83 -34 93 -45 191 -82 241 -91 72 -13 85 -15
113 -20 73 -15 132 -17 166 -5 20 6 36 16 36 21 0 5 7 9 17 9 58 0 310 253
360 361 29 62 61 88 109 84 31 -2 104 -40 104 -54 0 -19 83 -43 157 -46 43 -1
98 -9 123 -17 25 -8 52 -12 60 -10 8 3 36 26 62 51 26 25 73 68 105 96 72 61
101 96 107 126 3 13 5 24 6 24 2 0 9 35 21 110 16 98 19 207 9 247 -5 18 -11
53 -14 78 -3 25 -11 63 -16 85 -6 22 -13 57 -16 79 -7 42 -106 247 -129 266
-8 7 -15 17 -15 23 0 5 -8 17 -18 26 -9 9 -43 50 -73 91 -31 41 -66 85 -78 97
-23 24 -101 68 -101 57 0 -4 -6 -1 -14 5 -8 6 -49 14 -92 16 -44 3 -91 10
-106 16 -28 12 -55 45 -52 67 1 6 2 16 3 21 1 12 52 37 93 46 17 4 38 12 45
19 25 19 163 159 163 163 0 3 22 26 48 51 70 68 193 266 206 332 2 8 8 27 14
41 24 59 35 119 37 214 2 55 7 123 10 150 10 69 14 255 6 255 -4 0 -8 10 -9
23 -5 39 -8 51 -22 97 -31 105 -62 194 -73 213 -36 62 -131 155 -217 213 -59
40 -70 44 -125 44 -70 -1 -104 -17 -167 -76 -49 -47 -69 -71 -95 -111 -10 -15
-47 -57 -83 -93 -67 -67 -99 -81 -148 -63 -11 5 -77 63 -147 131 -70 67 -131
122 -137 122 -5 0 -23 9 -39 21 -16 11 -29 17 -29 13 0 -3 -6 -2 -12 3 -7 6
-20 11 -28 11 -55 3 -135 16 -173 28 -12 4 -72 8 -132 9 -89 1 -120 -2 -155
-17z"/>
</g>
</svg>
